<?xml version="1.0" encoding="UTF-8" standalone="no" ?>
<!DOCTYPE svg PUBLIC "-//W3C//DTD SVG 1.1//EN" "http://www.w3.org/Graphics/SVG/1.1/DTD/svg11.dtd">
<svg xmlns="http://www.w3.org/2000/svg" xmlns:xlink="http://www.w3.org/1999/xlink" version="1.1" width="640" height="480" viewBox="0 0 640 480" xml:space="preserve">
<desc>Created with Fabric.js 3.6.3</desc>
<defs>
</defs>
<g transform="matrix(3.92 0 0 3.92 316.07 235.06)"  >
<polygon style="stroke: rgb(0,0,0); stroke-width: 8; stroke-dasharray: none; stroke-linecap: butt; stroke-dashoffset: 0; stroke-linejoin: miter; stroke-miterlimit: 4; fill: rgb(255,255,255); fill-rule: nonzero; opacity: 1;" vector-effect="non-scaling-stroke"  points="-50,-50 -50,50 50,50 50,-50 " />
</g>
<g transform="matrix(1 0 0 1 314.49 230.5)"  >
<path style="stroke: none; stroke-width: 1; stroke-dasharray: none; stroke-linecap: butt; stroke-dashoffset: 0; stroke-linejoin: miter; stroke-miterlimit: 4; fill: rgb(0,0,0); fill-rule: nonzero; opacity: 1;"  transform=" translate(-224, -256)" d="M 400 32 H 48 C 21.5 32 0 53.5 0 80 v 352 c 0 26.5 21.5 48 48 48 h 352 c 26.5 0 48 -21.5 48 -48 V 80 c 0 -26.5 -21.5 -48 -48 -48 z M 277.3 415.7 c -8.4 1.5 -11.5 -3.7 -11.5 -8 c 0 -5.4 0.2 -33 0.2 -55.3 c 0 -15.6 -5.2 -25.5 -11.3 -30.7 c 37 -4.1 76 -9.2 76 -73.1 c 0 -18.2 -6.5 -27.3 -17.1 -39 c 1.7 -4.3 7.4 -22 -1.7 -45 c -13.9 -4.3 -45.7 17.9 -45.7 17.9 c -13.2 -3.7 -27.5 -5.6 -41.6 -5.6 c -14.1 0 -28.4 1.9 -41.6 5.6 c 0 0 -31.8 -22.2 -45.7 -17.9 c -9.1 22.9 -3.5 40.6 -1.7 45 c -10.6 11.7 -15.6 20.8 -15.6 39 c 0 63.6 37.3 69 74.3 73.1 c -4.8 4.3 -9.1 11.7 -10.6 22.3 c -9.5 4.3 -33.8 11.7 -48.3 -13.9 c -9.1 -15.8 -25.5 -17.1 -25.5 -17.1 c -16.2 -0.2 -1.1 10.2 -1.1 10.2 c 10.8 5 18.4 24.2 18.4 24.2 c 9.7 29.7 56.1 19.7 56.1 19.7 c 0 13.9 0.2 36.5 0.2 40.6 c 0 4.3 -3 9.5 -11.5 8 c -66 -22.1 -112.2 -84.9 -112.2 -158.3 c 0 -91.8 70.2 -161.5 162 -161.5 S 388 165.6 388 257.4 c 0.1 73.4 -44.7 136.3 -110.7 158.3 z m -98.1 -61.1 c -1.9 0.4 -3.7 -0.4 -3.9 -1.7 c -0.2 -1.5 1.1 -2.8 3 -3.2 c 1.9 -0.2 3.7 0.6 3.9 1.9 c 0.3 1.3 -1 2.6 -3 3 z m -9.5 -0.9 c 0 1.3 -1.5 2.4 -3.5 2.4 c -2.2 0.2 -3.7 -0.9 -3.7 -2.4 c 0 -1.3 1.5 -2.4 3.5 -2.4 c 1.9 -0.2 3.7 0.9 3.7 2.4 z m -13.7 -1.1 c -0.4 1.3 -2.4 1.9 -4.1 1.3 c -1.9 -0.4 -3.2 -1.9 -2.8 -3.2 c 0.4 -1.3 2.4 -1.9 4.1 -1.5 c 2 0.6 3.3 2.1 2.8 3.4 z m -12.3 -5.4 c -0.9 1.1 -2.8 0.9 -4.3 -0.6 c -1.5 -1.3 -1.9 -3.2 -0.9 -4.1 c 0.9 -1.1 2.8 -0.9 4.3 0.6 c 1.3 1.3 1.8 3.3 0.9 4.1 z m -9.1 -9.1 c -0.9 0.6 -2.6 0 -3.7 -1.5 s -1.1 -3.2 0 -3.9 c 1.1 -0.9 2.8 -0.2 3.7 1.3 c 1.1 1.5 1.1 3.3 0 4.1 z m -6.5 -9.7 c -0.9 0.9 -2.4 0.4 -3.5 -0.6 c -1.1 -1.3 -1.3 -2.8 -0.4 -3.5 c 0.9 -0.9 2.4 -0.4 3.5 0.6 c 1.1 1.3 1.3 2.8 0.4 3.5 z m -6.7 -7.4 c -0.4 0.9 -1.7 1.1 -2.8 0.4 c -1.3 -0.6 -1.9 -1.7 -1.5 -2.6 c 0.4 -0.6 1.5 -0.9 2.8 -0.4 c 1.3 0.7 1.9 1.8 1.5 2.6 z" stroke-linecap="round" />
</g>
</svg>